<?xml version="1.0" encoding="iso-8859-1"?>
<!-- Generator: Adobe Illustrator 19.0.0, SVG Export Plug-In . SVG Version: 6.00 Build 0)  -->
<svg version="1.1" id="Capa_1" xmlns="http://www.w3.org/2000/svg" xmlns:xlink="http://www.w3.org/1999/xlink" x="0px" y="0px"
	 viewBox="0 0 393.2 393.2" style="enable-background:new 0 0 393.2 393.2;" xml:space="preserve">
<g>
	<g>
		<path d="M150.8,56.4c-5.2-4.8-7.6-7.2-7.6-13.2s2.8-8.4,7.6-13.2c5.2-4.8,12-11.2,12-23.2c0-4-3.2-6.8-6.8-6.8
			c-4,0-6.8,3.2-6.8,6.8c0,5.6-2.8,8.4-7.6,13.2c-5.2,4.8-12,11.2-12,23.2s6.8,18.4,12,23.2s7.6,7.2,7.6,13.2
			c0,5.6-2.8,8.4-7.6,13.2c-5.2,4.8-12,11.2-12,23.6c0,4,3.2,6.8,6.8,6.8c4,0,6.8-3.2,6.8-6.8c0-6,2.8-8.4,7.6-13.2
			c5.2-4.8,12-11.2,12-23.6C162.8,67.6,156,61.2,150.8,56.4z"/>
	</g>
</g>
<g>
	<g>
		<path d="M199.6,56.4c-5.2-4.8-7.6-7.2-7.6-13.2s2.8-8.4,7.6-13.2c5.2-4.8,12-11.2,12-23.2c0-4-3.2-6.8-6.8-6.8
			c-4,0-6.8,3.2-6.8,6.8c0,5.6-2.8,8.4-7.6,13.2c-5.2,4.8-12,11.2-12,23.2s6.8,18.4,12,23.2c5.2,4.8,7.6,7.2,7.6,13.2
			c0,5.6-2.4,8.4-7.6,13.2c-5.2,4.8-12,11.2-12,23.6c0,4,3.2,6.8,6.8,6.8c3.6,0,6.8-3.2,6.8-6.8c0-6,2.8-8.4,7.6-13.2
			c5.2-4.8,12-11.2,12-23.6C211.6,67.6,204.8,61.2,199.6,56.4z"/>
	</g>
</g>
<g>
	<g>
		<path d="M304.8,172.4h-11.2v-21.2c0-4-3.2-6.8-6.8-6.8H47.2c-4,0-6.8,3.2-6.8,6.8v175.2c0,36.8,30,66.8,66.8,66.8h119.6
			c32,0,58.8-22.8,65.6-52.8h12.8c26.4,0,47.6-21.2,47.6-47.6V220C352.8,194,331.2,172.4,304.8,172.4z M279.6,326.4
			c0,29.2-23.6,52.8-52.8,52.8H107.2c-29.2,0-52.8-23.6-52.8-52.8V158h140.4v57.6h-23.6c-4,0-6.8,3.2-6.8,6.8v54
			c0,4,3.2,6.8,6.8,6.8h61.2c4,0,6.8-3.2,6.8-6.8v-53.6c0-4-3.2-6.8-6.8-6.8h-24v-58h71.2V326.4z M225.2,230v39.2h-47.6V230H225.2z
			 M338.8,292.8c0,18.4-15.2,33.6-33.6,33.6H294v-140h11.2c18.4,0,33.6,15.2,33.6,33.6V292.8z"/>
	</g>
</g>
<g>
</g>
<g>
</g>
<g>
</g>
<g>
</g>
<g>
</g>
<g>
</g>
<g>
</g>
<g>
</g>
<g>
</g>
<g>
</g>
<g>
</g>
<g>
</g>
<g>
</g>
<g>
</g>
<g>
</g>
</svg>
